<?xml version="1.0" encoding="UTF-8"?>
<svg id="a" data-name="圖層_1" xmlns="http://www.w3.org/2000/svg" viewBox="0 0 48 48">
  <defs>
    <style>
      .b, .c {
        fill: #3b4a5b;
        stroke: #3b4a5b;
      }

      .b, .c, .d {
        stroke-miterlimit: 10;
      }

      .b, .d {
        stroke-width: .3px;
      }

      .c {
        stroke-width: .12px;
      }

      .d {
        fill: #e08500;
        stroke: #e08500;
      }
    </style>
  </defs>
  <g>
    <path class="c" d="M12.54,41.24h.93l.89,2.63.89-2.63h.93v5.16h-.64v-4.56l-.91,2.72h-.53l-.92-2.72v4.56h-.64v-5.16Z"/>
    <path class="c" d="M17.52,42.53h.57l.06.76c.11-.27.27-.48.49-.63.22-.15.48-.22.77-.22.15,0,.3.02.44.06.13.04.27.1.39.18v.65c-.13-.11-.27-.18-.41-.23-.14-.05-.3-.07-.46-.07-.39,0-.69.13-.9.37-.21.25-.31.61-.31,1.08v1.93h-.64v-3.87Z"/>
    <path class="c" d="M21.73,46.33c-.11-.11-.16-.25-.16-.42s.06-.32.16-.42.24-.16.4-.16.29.06.4.16.16.25.16.42-.05.31-.16.42-.24.16-.4.16-.29-.06-.4-.16Z"/>
    <path class="c" d="M24.56,45.8c-.36-.47-.54-1.14-.54-1.97s.18-1.5.55-1.98c.37-.47.88-.71,1.53-.71.22,0,.43.03.6.07.16.04.38.12.54.21v.72c-.17-.14-.35-.25-.55-.32-.2-.07-.39-.11-.59-.11-.44,0-.79.18-1.01.52-.22.35-.34.88-.34,1.59s.11,1.24.34,1.58.56.53,1.02.53c.21,0,.4-.04.59-.11.19-.07.37-.18.54-.32v.72c-.18.09-.36.17-.54.21-.18.05-.39.07-.6.07-.64,0-1.16-.23-1.53-.7Z"/>
    <path class="c" d="M28.59,41.02h.63v2.09c.11-.23.27-.39.46-.51.19-.11.42-.17.68-.17.41,0,.69.14.88.39.19.26.29.65.29,1.18v2.4h-.64v-2.4c0-.35-.06-.61-.18-.77-.12-.16-.31-.25-.57-.25-.3,0-.52.11-.68.31-.16.21-.24.51-.24.91v2.19h-.63v-5.38Z"/>
    <path class="c" d="M34.97,46.43c-.37,0-.66-.11-.88-.37-.21-.25-.31-.59-.31-1.04v-2h-.84v-.5h1.48v2.5c0,.29.05.5.16.65.11.15.27.22.46.22h.74v.54h-.8ZM33.81,41.82c-.07,0-.1-.04-.1-.1v-.6c0-.07.03-.1.1-.1h.5c.07,0,.1.03.1.1v.6c0,.07-.03.1-.1.1h-.5Z"/>
  </g>
  <g>
    <path class="d" d="M22.87,16.6s-.06,0-.09,0c-.21-.04-.38-.19-.43-.4l-1.02-3.92-1.49,3.97c-.08.21-.28.35-.5.35h0c-.22,0-.42-.14-.5-.34l-1.6-4.07-1.13,4.02c-.07.23-.28.4-.52.4h-2.8v-1.09h2.4l1.45-5.17c.06-.22.26-.38.49-.39.23-.01.44.13.53.34l1.67,4.26,1.59-4.25c.08-.22.3-.36.53-.35.23.01.43.18.49.4l1.14,4.39,1.73-2.62c.1-.15.27-.24.45-.24h2.64c.19,0,.37.1.47.27.1.17.1.38,0,.54l-1.14,1.95,2.99-1.64.52.95-4.7,2.57c-.21.12-.48.08-.65-.1-.17-.18-.2-.44-.08-.65l1.64-2.82h-1.41l-2.23,3.39c-.1.15-.27.24-.45.24ZM30.08,16.97h1.11v-1.11h-1.11v1.11Z"/>
    <path class="b" d="M24.41,34.36v2.48c1.01-.05,2.01-.21,2.97-.47l.34,1.26c-1.25.35-2.55.53-3.87.54-.03,0-.06,0-.09,0-1.35,0-2.69-.18-3.98-.54l.35-1.26c.96.27,1.96.43,2.97.47v-2.47c-1.42-.06-2.8-.32-4.13-.77l.42-1.23c1.42.49,2.91.73,4.45.72,1.47,0,2.91-.25,4.27-.72l.42,1.23c-1.32.45-2.71.71-4.13.77ZM17.99,4.39c3.58-2.12,8-2.13,11.53-.03,0,0,1,.59,2.01,1.57l.9-.94c-1.13-1.09-2.21-1.73-2.25-1.76-1.98-1.18-4.26-1.78-6.59-1.73-2.21.04-4.37.65-6.26,1.76-1.7,1-3.11,2.39-4.07,4.01-1.04,1.76-1.55,3.71-1.5,5.82-.05,3.64,1.63,6.99,4.62,9.2,1.55,1.15,3.39,1.93,5.31,2.26,1.96.34,3.97.2,5.83-.4h.02l.1-.04c.48-.17,1.01-.06,1.43.28.42.33.64.82.59,1.31,0,0,0,.01,0,.02-.07.31-.2.92-.35,1.62l-.03-.08c-1.7.73-3.6,1.12-5.51,1.14-2.42.02-4.36-.58-5.55-1.08l-.02.04-.44-2.06-1.27.27,1.19,5.53,1.27-.27-.43-2c1.28.45,3.05.87,5.16.87.04,0,.07,0,.11,0,1.79-.01,3.58-.33,5.22-.93-.23,1.06-.43,1.98-.44,2.05l.63.15.62.17s.02-.07,1.11-5.15c.01-.06.02-.11.02-.15.1-.93-.3-1.86-1.07-2.47-.74-.59-1.69-.79-2.55-.53h-.01l-.1.03c-3.39,1.13-7.15.52-10.07-1.64-2.65-1.96-4.15-4.92-4.09-8.14h0s0-.03,0-.03c-.09-3.62,1.71-6.78,4.93-8.68Z"/>
  </g>
</svg>