<?xml version="1.0" encoding="UTF-8"?>
<svg id="a" data-name="圖層_1" xmlns="http://www.w3.org/2000/svg" viewBox="0 0 48 48">
  <defs>
    <style>
      .b {
        fill: #3b4a5b;
        stroke: #3b4a5b;
      }

      .b, .c {
        stroke-miterlimit: 10;
        stroke-width: .36px;
      }

      .c {
        fill: #e08500;
        stroke: #e08500;
      }
    </style>
  </defs>
  <path class="c" d="M23.07,19.77s-.07,0-.11,0c-.25-.04-.46-.23-.52-.49l-1.23-4.81-1.8,4.88c-.1.26-.34.43-.61.43h0c-.27,0-.51-.17-.61-.42l-1.93-5-1.37,4.94c-.08.29-.34.49-.63.49h-3.39v-1.33h2.9l1.76-6.35c.08-.28.32-.47.6-.48.28-.01.54.16.64.42l2.02,5.23,1.93-5.22c.1-.27.36-.45.65-.43.28.02.53.22.6.5l1.38,5.39,2.09-3.22c.12-.19.33-.3.54-.3h3.2c.23,0,.45.13.57.34.12.21.12.46,0,.67l-1.38,2.39,3.62-2.01.62,1.17-5.68,3.15c-.26.14-.58.09-.78-.12-.2-.21-.24-.54-.09-.8l1.99-3.46h-1.71l-2.7,4.16c-.12.19-.33.3-.54.3ZM31.78,20.22h1.34v-1.37h-1.34v1.37Z"/>
  <path class="b" d="M24.93,41.58v3.04c1.22-.06,2.43-.25,3.6-.58l.41,1.54c-1.52.42-3.09.65-4.68.66-.04,0-.07,0-.11,0-1.64,0-3.26-.22-4.81-.66l.42-1.54c1.17.33,2.37.52,3.6.58v-3.04c-1.72-.07-3.39-.39-4.99-.95l.51-1.51c1.71.6,3.52.89,5.38.88,1.78-.01,3.52-.31,5.16-.88l.51,1.51c-1.6.56-3.27.87-4.99.95ZM17.16,4.78c4.33-2.6,9.68-2.61,13.95-.04.01,0,1.21.73,2.43,1.93l1.09-1.15c-1.37-1.34-2.67-2.13-2.72-2.16-2.4-1.45-5.16-2.18-7.97-2.13-2.67.05-5.29.8-7.57,2.17-2.06,1.23-3.76,2.93-4.92,4.92-1.26,2.16-1.87,4.56-1.81,7.14-.06,4.46,1.97,8.58,5.59,11.29,1.88,1.41,4.1,2.37,6.43,2.77,2.37.41,4.8.24,7.05-.5h.02l.12-.04c.58-.2,1.22-.08,1.73.34.5.41.77,1.01.71,1.61,0,0,0,.02,0,.02-.08.38-.24,1.13-.42,1.99l-.04-.1c-2.05.9-4.36,1.38-6.66,1.4-2.93.02-5.27-.71-6.72-1.32l-.02.05-.54-2.53-1.53.34,1.44,6.79,1.53-.34-.52-2.46c1.55.55,3.68,1.07,6.24,1.07.04,0,.09,0,.13,0,2.16-.02,4.33-.41,6.32-1.15-.27,1.3-.51,2.43-.53,2.51l.76.19.76.21s.02-.09,1.34-6.32c.02-.08.03-.13.03-.18.12-1.15-.36-2.28-1.29-3.03-.89-.73-2.04-.97-3.09-.65h-.02l-.12.04c-4.1,1.39-8.65.64-12.18-2.01-3.21-2.4-5.02-6.05-4.95-9.99v-.02s0-.02,0-.02c-.11-4.44,2.06-8.32,5.96-10.66Z"/>
</svg>